<svg width="81" height="82" viewBox="0 0 81 82" fill="none" xmlns="http://www.w3.org/2000/svg">
<rect y="0.8125" width="81" height="81" rx="20" fill="#6EB3D2"/>
<g clip-path="url(#clip0_3311_452)">
<path d="M53.407 53.2213H53.4641C53.4995 53.224 53.535 53.224 53.5705 53.2213C55.5061 52.6769 65.7656 43.083 65.9939 40.2342C66.2222 37.3853 59.86 37.8027 59.86 37.8027C56.7464 37.7586 49.4812 37.8312 46.954 37.8027C46.954 37.8027 40.5995 37.3853 40.8201 40.2342C41.0406 43.083 51.3053 52.6769 53.2435 53.2213C53.2789 53.224 53.3145 53.224 53.3499 53.2213H53.407Z" fill="white"/>
<path d="M37.5212 62.8125C33.2647 62.813 29.1037 61.5525 25.5643 59.1904C22.0249 56.8282 19.2662 53.4706 17.6369 49.542C16.0077 45.6134 15.5812 41.2904 16.4113 37.1196C17.2413 32.9489 19.2908 29.1177 22.3004 26.1106C25.3099 23.1035 29.1445 21.0556 33.3192 20.2258C37.4938 19.396 41.821 19.8216 45.7535 21.4488C49.686 23.076 53.0472 25.8318 55.412 29.3675C57.7768 32.9032 59.0391 37.0601 59.0391 41.3125H48.6006C48.6006 39.1227 47.9505 36.982 46.7327 35.1613C45.5149 33.3406 43.784 31.9215 41.7589 31.0836C39.7337 30.2457 37.5054 30.0266 35.3556 30.454C33.2058 30.8814 31.2312 31.9361 29.6815 33.4848C28.1317 35.0334 27.0765 37.0064 26.6492 39.1542C26.2219 41.302 26.4417 43.5282 27.2809 45.5512C28.12 47.5742 29.5409 49.3031 31.3636 50.5193C33.1864 51.7356 35.3292 52.3845 37.5212 52.384C38.7465 52.3874 39.9638 52.1858 41.1226 51.7877C41.5638 51.6293 42.0473 51.6349 42.4846 51.8034C42.922 51.9719 43.2841 52.2921 43.5045 52.7054L46.5793 58.5457C46.7061 58.7834 46.7818 59.045 46.8013 59.3136C46.8208 59.5823 46.7838 59.852 46.6927 60.1055C46.6015 60.359 46.4582 60.5906 46.2719 60.7854C46.0857 60.9802 45.8607 61.1338 45.6114 61.2364C43.0409 62.2756 40.2942 62.8107 37.5212 62.8125Z" fill="white"/>
</g>
<defs>
<clipPath id="clip0_3311_452">
<rect width="50" height="43" fill="white" transform="translate(16 19.8125)"/>
</clipPath>
</defs>
</svg>
