<svg width="81" height="82" viewBox="0 0 81 82" fill="none" xmlns="http://www.w3.org/2000/svg">
<rect y="0.8125" width="81" height="81" rx="20" fill="#6EB3D2"/>
<g clip-path="url(#clip0_3311_457)">
<path d="M60.9894 41.2417C60.6298 36.5458 43.905 20.7367 40.766 19.8329C40.7075 19.8265 40.6486 19.8265 40.5901 19.8329H40.4983H40.4065C40.348 19.8265 40.289 19.8265 40.2305 19.8329C39.1264 20.1468 36.3547 22.2986 33.2055 25.149C33.2055 23.1239 33.1494 21.6049 33.0271 21.4454C32.6216 20.8961 25.4513 20.8961 25.0484 21.4454C24.7755 21.815 24.8699 28.8906 24.9591 33.5081C22.1874 36.6927 20.1322 39.619 20.0072 41.2341C19.8313 43.5277 22.2129 44.5251 24.6939 44.9655C24.3293 50.2057 23.6587 61.8203 24.8827 62.3494C25.4156 62.5772 28.9625 62.7316 33.4758 62.8051C33.6839 62.8103 33.8908 62.7734 34.084 62.6965C34.2771 62.6197 34.4525 62.5045 34.5993 62.358C34.7461 62.2116 34.8612 62.0369 34.9377 61.8448C35.0142 61.6527 35.0503 61.447 35.044 61.2405C34.9369 56.7016 34.863 50.8032 35.1919 50.4665C35.73 49.9172 45.2666 49.9172 45.8046 50.4665C46.1336 50.8032 46.0596 56.7016 45.9551 61.2405C45.9488 61.447 45.985 61.6527 46.0614 61.8448C46.1379 62.0369 46.2531 62.2116 46.3999 62.358C46.5467 62.5045 46.722 62.6197 46.9152 62.6965C47.1083 62.7734 47.3152 62.8103 47.5233 62.8051C52.0417 62.7316 55.581 62.5772 56.1139 62.3494C57.3379 61.8203 56.6698 50.1982 56.3026 44.9655C58.7837 44.5428 61.1653 43.5353 60.9894 41.2417Z" fill="white"/>
</g>
<defs>
<clipPath id="clip0_3311_457">
<rect width="41" height="43" fill="white" transform="translate(20 19.8125)"/>
</clipPath>
</defs>
</svg>
